# xmcd
#
# Track frame offsets:
# 150
# 17797
# 32437
# 50317
# 64162
# 79859
# 98931
# 116203
# 132095
# 146577
#
# Disc length: 2128 seconds
#
#
# Revision: 0
# Processed by: cddbd v1.5.1PL2 Copyright (c) Steve Scherf et al.
# Submitted via: FreeRIP 2.942 
#
DISCID=84084e0a
DTITLE=Larson, Nicolette - All Dressed Up And No Place To Go
DYEAR=1982
DGENRE=Blues
TTITLE0=I'll Fly Away
TTITLE1=I Only Want To Be With You
TTITLE2=Just Any I Love You
TTITLE3=Nathan Jones
TTITLE4=I Want You So Bad
TTITLE5=Two Trains
TTITLE6=Love, Sweet, Love
TTITLE7=Any You Will
TTITLE8=Talk To Me
TTITLE9=Still You Linger On
EXTD=LP Rip\nWarner Bros - 1982
EXTT0=
EXTT1=
EXTT2=
EXTT3=
EXTT4=
EXTT5=
EXTT6=
EXTT7=
EXTT8=
EXTT9=
PLAYORDER=
